<svg width="24" height="21" viewBox="0 0 24 21" fill="none" xmlns="http://www.w3.org/2000/svg">
<path fill-rule="evenodd" clip-rule="evenodd" d="M6.39732 20.4375H2.61232C1.81732 20.4375 1.42482 20.4375 1.18482 20.2837C1.05837 20.2012 0.95311 20.0901 0.877543 19.9594C0.801976 19.8287 0.758224 19.682 0.749823 19.5312C0.734823 19.2487 0.931073 18.9025 1.32482 18.2125L10.6648 1.72125C11.0623 1.02125 11.2648 0.671249 11.5173 0.541249C11.6525 0.472527 11.802 0.436707 11.9536 0.436707C12.1052 0.436707 12.2547 0.472527 12.3898 0.541249C12.6436 0.671249 12.8448 1.02125 13.2423 1.72125L15.1623 5.07875L15.1723 5.09625C15.6011 5.84625 15.8186 6.22875 15.9136 6.62875C16.0198 7.06656 16.0198 7.52344 15.9136 7.96125C15.8186 8.365 15.6023 8.74875 15.1673 9.51125L10.2598 18.1987L10.2473 18.22C9.81482 18.9775 9.59732 19.3612 9.29232 19.6512C8.96407 19.9656 8.56552 20.197 8.12982 20.3262C7.73107 20.4375 7.28732 20.4375 6.39732 20.4375ZM15.9511 20.4375H21.3711C22.1711 20.4375 22.5736 20.4375 22.8136 20.28C22.941 20.197 23.0469 20.085 23.1225 19.953C23.1981 19.8211 23.2413 19.6731 23.2486 19.5212C23.2623 19.2475 23.0711 18.9162 22.6948 18.265L22.6548 18.1975L19.9398 13.545L19.9086 13.4925C19.5273 12.8462 19.3336 12.52 19.0873 12.3937C18.9532 12.3253 18.8048 12.2896 18.6542 12.2896C18.5036 12.2896 18.3552 12.3253 18.2211 12.3937C17.9711 12.5237 17.7711 12.865 17.3736 13.55L14.6673 18.2025L14.6586 18.2187C14.2623 18.9037 14.0636 19.245 14.0786 19.5262C14.0869 19.6777 14.1306 19.8251 14.2061 19.9567C14.2816 20.0882 14.3869 20.2002 14.5136 20.2837C14.7486 20.4375 15.1511 20.4375 15.9511 20.4375Z" fill="white"/>
</svg>
