<svg width="26" height="26" viewBox="0 0 26 26" fill="none" xmlns="http://www.w3.org/2000/svg">
<path d="M8.145 11.005L13 6.15L17.8575 11.0075L20.6825 8.1825L13 0.5L5.32 8.18L8.145 11.005ZM0.5 13L3.325 10.175L6.15 13L3.325 15.825L0.5 13ZM8.145 14.995L13 19.85L17.8575 14.9925L20.6825 17.8162L13 25.5L5.32 17.82L5.31625 17.8162L8.145 14.995ZM19.85 13L22.675 10.175L25.5 13L22.675 15.825L19.85 13ZM15.865 12.9975H15.8675V13L13 15.8675L10.1362 13.005L10.1313 13L10.1362 12.9963L10.6375 12.4938L10.8813 12.25L13 10.1325L15.8662 12.9987L15.865 12.9975Z" fill="white"/>
</svg>
