<svg width="16" height="22" viewBox="0 0 16 22" fill="none" xmlns="http://www.w3.org/2000/svg">
<path fill-rule="evenodd" clip-rule="evenodd" d="M15.5819 8.72841C15.3721 10.1765 14.6156 11.0526 13.3125 11.3567C14.1674 11.7988 14.748 12.3669 15.0545 13.0607C15.3609 13.7547 15.3301 14.6289 14.9622 15.6835C14.7715 16.2215 14.5252 16.6757 14.2235 17.0461C13.9217 17.4165 13.5858 17.7002 13.2156 17.8971C12.8455 18.094 12.4126 18.2281 11.917 18.2992C11.4215 18.3702 10.9165 18.3876 10.4022 18.3511C9.88795 18.3145 9.30845 18.2331 8.66395 18.1067L7.92928 21.0773L6.13528 20.6337L6.85837 17.7096C6.23703 17.5559 5.7642 17.4349 5.43995 17.3465L4.71395 20.2822L2.91987 19.8386L3.65453 16.8678C3.5147 16.8332 3.30553 16.7795 3.02687 16.7065C2.7482 16.6334 2.53512 16.5787 2.38753 16.5422L0.0576172 15.966L0.945951 13.9234L2.23903 14.2432C2.62737 14.3392 2.90162 14.1968 3.0617 13.8162L4.21978 9.13291L4.4062 9.179C4.36153 9.15966 4.30037 9.14041 4.2227 9.12125L5.04953 5.77775C5.07912 5.22466 4.79878 4.87508 4.20853 4.72916L2.91545 4.40933L3.38787 2.49875L5.85478 3.12116C6.35187 3.24408 6.72945 3.33333 6.9877 3.389L7.7137 0.453247L9.50778 0.896914L8.7962 3.77441C9.43687 3.91633 9.91253 4.02575 10.2232 4.10258L10.929 1.24833L12.7231 1.692L11.9971 4.62775C12.5973 4.83383 13.1193 5.05566 13.5633 5.29325C14.0073 5.53075 14.4029 5.814 14.7501 6.143C15.0973 6.472 15.3428 6.85408 15.4865 7.28933C15.6302 7.72458 15.662 8.20433 15.5819 8.72841ZM11.507 14.4582C11.5762 14.1786 11.5794 13.9157 11.5167 13.6694C11.454 13.4231 11.3545 13.2089 11.2181 13.0269C11.0819 12.8448 10.8879 12.6712 10.6361 12.5059C10.3845 12.3407 10.1479 12.2059 9.92637 12.1017C9.70495 11.9975 9.4262 11.8915 9.0902 11.7837C8.75428 11.6758 8.4892 11.598 8.29503 11.5499C8.10087 11.5019 7.84945 11.4438 7.5407 11.3757C7.23203 11.3077 7.04662 11.2659 6.98445 11.2506L6.01078 15.1882C6.07287 15.2036 6.21612 15.2411 6.44037 15.3007C6.66462 15.3602 6.85053 15.4082 6.99812 15.4447C7.1457 15.4812 7.35295 15.5263 7.61987 15.58C7.88678 15.6336 8.11778 15.6742 8.31287 15.7019C8.50795 15.7296 8.73753 15.7512 9.00145 15.7671C9.26537 15.7829 9.49437 15.7818 9.68837 15.7639C9.88228 15.7459 10.087 15.71 10.3022 15.6561C10.5175 15.6022 10.6996 15.5236 10.8488 15.4204C10.998 15.3172 11.1315 15.1853 11.2495 15.025C11.3674 14.8646 11.4533 14.6757 11.507 14.4582ZM12.0741 7.99083C12.1222 8.21283 12.1146 8.452 12.0512 8.70833C11.9975 8.92575 11.9135 9.11516 11.7995 9.2765C11.6854 9.43791 11.5435 9.5615 11.374 9.64725C11.2045 9.73308 11.0348 9.80241 10.8651 9.85525C10.6955 9.90808 10.4894 9.93333 10.2469 9.931C10.0043 9.92875 9.7937 9.922 9.6152 9.91083C9.43662 9.89958 9.21778 9.86816 8.95862 9.81641C8.69945 9.76466 8.50337 9.72441 8.37037 9.69566C8.23737 9.66691 8.05678 9.62225 7.82862 9.56175C7.60045 9.50116 7.46695 9.46608 7.42812 9.4565L8.31253 5.88C8.36695 5.89341 8.52078 5.92941 8.7742 5.988C9.02753 6.0465 9.2382 6.0945 9.40612 6.13191C9.57412 6.16933 9.79695 6.23475 10.0746 6.32808C10.3524 6.4215 10.5835 6.51166 10.768 6.5985C10.9526 6.68533 11.1504 6.80225 11.3613 6.94916C11.5722 7.09608 11.7317 7.25091 11.8398 7.41366C11.9479 7.57633 12.026 7.76875 12.0741 7.99083Z" fill="white"/>
</svg>
