<svg width="34" height="34" viewBox="0 0 34 34" fill="none" xmlns="http://www.w3.org/2000/svg">
<path d="M8.42266 3.4914C6.36406 3.99609 4.6375 5.73593 4.13945 7.80116C3.95352 8.57812 3.95352 9.81327 4.13945 10.5902C4.53789 12.2504 5.72656 13.7246 7.28047 14.475C8.30977 14.9664 8.44258 14.993 10.6008 15.0195L12.5066 15.0527V19.0769L12.5 23.1078L12.2477 22.809C9.67773 19.8207 9.56484 19.7078 8.80117 19.4223C8.32305 19.2363 7.47305 19.1766 6.98828 19.2894C6.53008 19.3957 5.91914 19.7012 5.70664 19.9269C5.50078 20.1594 5.38789 20.5777 5.46094 20.8965C5.52734 21.1754 8.17695 25.3723 8.91406 26.3617C9.53828 27.1918 10.8133 28.4734 11.6434 29.091C13.1707 30.2398 14.8176 31.0566 16.5773 31.5348C18.0316 31.9332 18.6094 32.0062 20.2762 31.9996C21.7105 31.9996 21.7902 31.993 22.3613 31.8203C23.6695 31.4152 24.5859 30.8508 25.509 29.8812C26.1664 29.184 26.6379 28.4469 26.9566 27.6035C27.3484 26.5476 27.3816 26.2555 27.3816 23.6457C27.3816 21.5273 27.3684 21.2551 27.2555 20.8898C27.0828 20.3254 26.857 19.9801 26.3922 19.5351C25.7281 18.9043 25.6152 18.8644 21.2059 17.9281C19.0344 17.4633 17.1418 17.0582 17.009 17.025L16.7566 16.9586V16.0023V15.0461L20.7941 15.0195C25.3297 14.9996 25.0973 15.0195 26.2328 14.475C27.7867 13.7246 28.9754 12.2504 29.3738 10.5902C29.5598 9.81327 29.5598 8.57812 29.3738 7.80116C28.8758 5.71601 27.1426 3.98281 25.0574 3.48476C24.5063 3.35859 24.307 3.35195 16.7234 3.35859C9.24609 3.35859 8.93398 3.36523 8.42266 3.4914ZM24.5859 5.62304C25.8012 6.00155 26.7906 6.9246 27.1492 8.03359C27.3352 8.5914 27.3352 9.79999 27.1492 10.3578C26.8703 11.2144 26.1133 12.0777 25.2832 12.4894C24.5063 12.868 24.5328 12.868 20.4953 12.8945L16.7566 12.9211V12.1574C16.7566 11.1945 16.6305 10.8027 16.159 10.3246C15.0965 9.26874 13.1574 9.64726 12.6461 11.0219C12.5332 11.3207 12.5066 11.5465 12.5066 12.1641V12.9344L10.8996 12.8945C9.18633 12.8547 8.8875 12.8082 8.23008 12.4894C7.41992 12.0844 6.69609 11.2809 6.38398 10.4242C6.21133 9.92616 6.14492 8.93671 6.26445 8.40546C6.58984 6.90468 7.89805 5.72929 9.45195 5.54335C9.69102 5.51679 13.1109 5.49687 17.0555 5.50351C23.4969 5.51679 24.2605 5.53007 24.5859 5.62304Z" fill="#A020F0"/>
</svg>
