<svg width="8" height="10" viewBox="0 0 8 10" fill="none" xmlns="http://www.w3.org/2000/svg">
<path d="M0.566987 9.03662C0.428916 9.27577 0.510854 9.58156 0.75 9.71963C0.989146 9.8577 1.29494 9.77577 1.43301 9.53662L0.566987 9.03662ZM6.43271 0.583997C6.36124 0.317264 6.08707 0.158973 5.82034 0.230444L1.47367 1.39513C1.20694 1.4666 1.04865 1.74077 1.12012 2.0075C1.19159 2.27424 1.46576 2.43253 1.73249 2.36106L5.59619 1.32578L6.63147 5.18948C6.70294 5.45622 6.97711 5.61451 7.24384 5.54304C7.51058 5.47157 7.66887 5.1974 7.5974 4.93066L6.43271 0.583997ZM1.43301 9.53662L6.38276 0.963407L5.51673 0.463407L0.566987 9.03662L1.43301 9.53662Z" fill="white"/>
</svg>
