<svg width="19" height="20" viewBox="0 0 19 20" fill="none" xmlns="http://www.w3.org/2000/svg">
<path fill-rule="evenodd" clip-rule="evenodd" d="M5.56 8.2625H10.9525V11.12H5.56V17.1425H8.96125C10.3075 17.1425 11.4088 16.9613 12.2663 16.5963C13.1238 16.2325 13.7963 15.7287 14.285 15.0837C14.7849 14.413 15.1252 13.6371 15.28 12.815C15.4606 11.8877 15.5485 10.9447 15.5425 10C15.5485 9.05529 15.4606 8.11231 15.28 7.185C15.1254 6.36287 14.785 5.5869 14.285 4.91625C13.7963 4.27125 13.1225 3.7675 12.2663 3.40375C11.4088 3.03875 10.3075 2.8575 8.96125 2.8575H5.56V8.26375V8.2625ZM2.1025 11.12H0.25V8.26375H2.1025V0H10.2887C11.8013 0 13.11 0.2625 14.2163 0.78375C15.3225 1.3075 16.225 2.02125 16.9263 2.9275C17.6262 3.8325 18.1475 4.8925 18.4888 6.10625C18.83 7.32 19 8.61875 19 10C19.0086 11.3153 18.8361 12.6255 18.4875 13.8937C18.1475 15.1062 17.6262 16.1675 16.925 17.0725C16.225 17.9788 15.3225 18.6925 14.2163 19.2162C13.11 19.7387 11.8 20 10.2887 20H2.1025V11.12Z" fill="white"/>
</svg>
