<svg width="21" height="20" viewBox="0 0 21 20" fill="none" xmlns="http://www.w3.org/2000/svg">
<path d="M6.05279 1.29656C6.73329 1.52529 7.38067 1.84146 7.9784 2.23703C8.82257 2.02296 9.69058 1.91541 10.5619 1.91694C11.4617 1.91694 12.3298 2.02843 13.1436 2.23613C13.7411 1.84095 14.3881 1.52507 15.0683 1.29656C15.6999 1.08347 16.5997 0.738213 17.1343 1.32533C17.4968 1.72453 17.5874 2.39347 17.6517 2.90417C17.7242 3.4742 17.7414 4.21686 17.5512 4.95413C18.2788 5.88651 18.7174 6.9987 18.7174 8.2107C18.7174 10.0467 17.7152 11.6408 16.2318 12.7449C15.5179 13.2696 14.7261 13.6809 13.8848 13.9641C14.0787 14.4047 14.1866 14.892 14.1866 15.4036V18.1009C14.1866 18.3393 14.0911 18.568 13.9211 18.7367C13.7512 18.9053 13.5207 19 13.2804 19H7.84338C7.60305 19 7.37256 18.9053 7.20262 18.7367C7.03268 18.568 6.93721 18.3393 6.93721 18.1009V17.2099C6.07182 17.3151 5.34598 17.2216 4.72888 16.9617C4.08369 16.6902 3.63423 16.2694 3.29623 15.8666C2.97545 15.4854 2.62567 14.6258 2.12003 14.4586C2.0071 14.4213 1.90268 14.3623 1.81273 14.2849C1.72279 14.2076 1.64908 14.1134 1.59582 14.0078C1.48825 13.7945 1.47048 13.5475 1.54642 13.3212C1.62237 13.0949 1.7858 12.9078 2.00078 12.8011C2.21575 12.6944 2.46465 12.6767 2.69272 12.7521C3.29623 12.9517 3.68951 13.3833 3.95864 13.7303C4.3936 14.2878 4.74701 15.0161 5.43569 15.3065C5.71932 15.426 6.13526 15.5043 6.78588 15.4162L6.93721 15.3856C6.93894 14.8963 7.04164 14.4125 7.23897 13.9641C6.39767 13.6809 5.60588 13.2696 4.89199 12.7449C3.4086 11.6408 2.40638 10.0476 2.40638 8.2107C2.40638 7.0005 2.84405 5.8892 3.56989 4.95773C3.3796 4.22046 3.39591 3.476 3.4684 2.90506L3.47293 2.8709C3.53909 2.34762 3.61611 1.73173 3.98583 1.32533C4.52046 0.738213 5.4212 1.08437 6.05189 1.29746L6.05279 1.29656Z" fill="white"/>
</svg>
