<svg width="30" height="30" viewBox="0 0 30 30" fill="none" xmlns="http://www.w3.org/2000/svg">
<path d="M1.98467 0.0631342C1.54759 0.187083 1.17574 0.800303 1.27359 1.22434C1.38449 1.71361 1.39754 1.72013 5.87275 5.0798C8.29954 6.89989 10.3545 8.43294 10.4458 8.47861C10.5698 8.55037 11.0525 8.57646 12.6377 8.58951L14.6796 8.60908L16.5389 10.9837C17.8958 12.7124 18.4568 13.3779 18.6199 13.4561C18.907 13.5931 19.3506 13.5866 19.618 13.4431C19.7289 13.3844 21.3076 11.773 23.1277 9.87466C24.9478 7.96977 26.4678 6.38453 26.5005 6.35191C26.5461 6.30624 26.5526 6.43019 26.5265 6.72375C26.4678 7.33045 26.5722 7.69577 26.8788 7.96977C27.2702 8.32857 27.8508 8.34161 28.2749 8.00891C28.6402 7.72187 28.6532 7.63054 28.7054 5.47774C28.7315 4.38177 28.725 3.3967 28.6989 3.2858C28.6272 3.03791 28.3532 2.74434 28.0922 2.63344C27.9422 2.5682 27.3224 2.54211 25.7894 2.52254C23.7605 2.50297 23.6888 2.50949 23.5061 2.63997C23.2778 2.80306 23.0299 3.27928 23.0299 3.54675C23.0299 3.85336 23.2908 4.31001 23.5518 4.46006C23.7279 4.55791 23.9367 4.59705 24.452 4.62315L25.1174 4.65576L22.1818 7.72187C20.5705 9.40496 19.2266 10.788 19.2005 10.788C19.1679 10.7814 18.4242 9.86162 17.537 8.73303C16.4997 7.40873 15.8474 6.63895 15.7104 6.56066C15.5212 6.46281 15.2733 6.44976 13.401 6.44976H11.3069L7.07962 3.27928C4.75721 1.53747 2.76098 0.0827045 2.65008 0.050086C2.4087 -0.0216732 2.25866 -0.0151491 1.98467 0.0631342Z" fill="#A020F0"/>
<path d="M1.22073 9.60714C0.861931 9.73762 0.542273 9.97247 0.353088 10.2465C-0.0122354 10.7683 0.000811829 10.3704 0.000811829 19.7579C0.000811829 29.6151 -0.0448536 28.8584 0.548796 29.452C1.06416 29.9674 1.2403 30 3.23001 30C5.21971 30 5.39585 29.9674 5.91122 29.452C6.50487 28.8584 6.4592 29.6151 6.4592 19.7579C6.4592 10.0508 6.49182 10.6705 5.98298 10.1225C5.46109 9.55495 5.44152 9.54843 3.32786 9.53538C1.87962 9.52234 1.41644 9.53538 1.22073 9.60714Z" fill="#A020F0"/>
<path d="M9.02928 13.9062C8.68352 14.0366 8.37691 14.2845 8.14859 14.6238L7.92678 14.95L7.90721 21.7932C7.89417 28.343 7.90069 28.6496 8.01159 28.9105C8.18773 29.3085 8.4552 29.589 8.83357 29.7912L9.16627 29.9673L10.9081 29.9869C12.3302 30.0065 12.7216 29.9934 12.9956 29.9086C13.511 29.7586 13.8568 29.4715 14.0916 29.0018L14.2873 28.5974L14.2743 21.8128L14.2547 15.0282L14.1112 14.7673C13.9285 14.4215 13.6023 14.1215 13.2435 13.9584C12.9695 13.8344 12.826 13.8214 11.0907 13.8279C9.83168 13.8279 9.16627 13.854 9.02928 13.9062Z" fill="#A020F0"/>
<path d="M24.5434 13.991C24.1781 14.1737 23.9563 14.402 23.728 14.826L23.5845 15.0935L23.5649 21.7411C23.5453 29.3607 23.5127 28.8584 24.0998 29.4455C24.6152 29.9674 24.7848 30 26.781 30C28.7773 30 28.9469 29.9674 29.4622 29.4455C30.0494 28.8584 30.0168 29.3607 29.9972 21.7411L29.9776 15.0935L29.8341 14.826C29.6058 14.402 29.384 14.1737 29.0186 13.991L28.6794 13.8214H26.781H24.8827L24.5434 13.991Z" fill="#A020F0"/>
<path d="M16.923 18.1791C16.4011 18.3618 16.0945 18.6488 15.8531 19.1837C15.7292 19.4512 15.7227 19.6339 15.7227 24.0308V28.5973L15.8792 28.9235C16.0684 29.3345 16.3815 29.6542 16.7664 29.8303C17.0404 29.9608 17.1709 29.9673 18.9519 29.9673H20.8437L21.1764 29.7911C21.5548 29.5954 21.8157 29.3149 21.9919 28.9235C22.1028 28.6821 22.1158 28.3755 22.1158 24.0243V19.3925L21.9462 19.0533C21.7635 18.6879 21.5352 18.4661 21.1112 18.2378C20.8568 18.1008 20.7589 18.0943 19.0497 18.0747C17.4645 18.0617 17.2166 18.0747 16.923 18.1791Z" fill="#A020F0"/>
</svg>
