<svg width="67" height="67" viewBox="0 0 67 67" fill="none" xmlns="http://www.w3.org/2000/svg">
<path d="M67 33.4891C67 52.0042 51.9873 67 33.5 67C14.9909 67 0 52.0042 0 33.4891C0 14.9958 14.9909 0 33.5 0C51.9873 0 67 14.9958 67 33.4891ZM65.4485 33.3142C65.4485 15.7171 51.1787 1.42088 33.5656 1.42088C15.9742 1.42088 1.70451 15.7171 1.70451 33.3142C1.70451 50.9331 15.9742 65.2075 33.5656 65.2075C51.1787 65.2075 65.4485 50.9331 65.4485 33.3142Z" fill="#D0215D"/>
<path d="M54.6972 32.9644C54.6972 44.6593 45.2351 54.1246 33.5439 54.1246C21.8746 54.1246 12.3906 44.6593 12.3906 32.9644C12.3906 21.2913 21.8746 11.8042 33.5439 11.8042C45.2351 11.8042 54.6972 21.2913 54.6972 32.9644ZM51.1571 31.784C51.1571 22.0127 43.2465 14.0995 33.5002 14.0995C23.7321 14.0995 15.8215 22.0127 15.8215 31.784C15.8215 41.5334 23.7321 49.4466 33.5002 49.4466C43.2465 49.4466 51.1571 41.5334 51.1571 31.784Z" fill="#7B1F67"/>
<path d="M66.2567 33.3143C66.2567 51.3923 51.6155 66.0383 33.5434 66.0383C15.4931 66.0383 0.830078 51.3923 0.830078 33.3143C0.830078 15.2582 15.4931 0.590332 33.5434 0.590332C51.6155 0.590332 66.2567 15.2582 66.2567 33.3143ZM53.8663 32.9427C53.8663 21.7068 44.7756 12.6132 33.5434 12.6132C22.3112 12.6132 13.2205 21.7068 13.2205 32.9427C13.2205 44.1786 22.3112 53.2722 33.5434 53.2722C44.7756 53.2722 53.8663 44.1786 53.8663 32.9427Z" fill="#0F0817"/>
<path d="M52.0089 31.7622C52.0089 41.9926 43.7049 50.2993 33.4779 50.2993C23.2509 50.2993 14.9688 41.9926 14.9688 31.7622C14.9688 21.5319 23.2509 13.2471 33.4779 13.2471C43.7049 13.2471 52.0089 21.5319 52.0089 31.7622Z" fill="#0F0817"/>
</svg>
