<svg width="34" height="34" viewBox="0 0 34 34" fill="none" xmlns="http://www.w3.org/2000/svg">
<path d="M3.25781 1.22298C2.36797 1.50189 1.64414 2.13275 1.2457 2.96947L1 3.48744V10.6925V17.8976L1.2457 18.4156C1.57773 19.1128 2.10898 19.6441 2.80625 19.9761L3.32422 20.2218L9.2543 20.2417C15.8285 20.2617 15.3902 20.2882 15.7555 19.8167C15.9082 19.6109 15.9414 19.5046 15.9414 19.1925C15.9414 18.8804 15.9082 18.7742 15.7555 18.5683C15.3969 18.1035 15.7754 18.13 9.69922 18.13C5.87422 18.13 4.12109 18.1101 3.91523 18.057C3.56992 17.9706 3.26445 17.6585 3.16484 17.2867C3.11836 17.1206 3.0918 14.9093 3.0918 10.6593C3.09844 3.91244 3.0918 3.97884 3.40391 3.64017C3.73594 3.2683 3.34414 3.28822 10.5293 3.28822C17.0172 3.28822 17.1434 3.28822 17.3625 3.42103C17.6547 3.59369 17.8273 3.83275 17.9004 4.15814C17.9336 4.30423 17.9668 6.84095 17.9668 9.88236C17.9668 15.9386 17.9402 15.5601 18.4051 15.9187C18.6109 16.0714 18.7172 16.1046 19.0293 16.1046C19.3414 16.1046 19.4477 16.0714 19.6535 15.9187C20.125 15.5535 20.0984 15.9917 20.0785 9.41751L20.0586 3.48744L19.8129 2.97611C19.4078 2.12611 18.7703 1.55501 17.9137 1.26947C17.5152 1.13001 17.4023 1.13001 10.516 1.13665C5.05742 1.13665 3.46367 1.15658 3.25781 1.22298Z" fill="#A020F0"/>
<path d="M14.8134 4.95495C14.5611 5.08113 4.91226 14.71 4.77281 14.969C4.54703 15.4007 4.69976 16.0581 5.0982 16.3569C5.35054 16.5428 5.92164 16.5827 6.22047 16.4366C6.48609 16.3038 16.1349 6.6948 16.2877 6.41589C16.5267 5.95769 16.3341 5.24714 15.8826 4.97488C15.6302 4.82214 15.0923 4.80886 14.8134 4.95495Z" fill="#A020F0"/>
<path d="M6.22617 6.04402C5.81445 6.29637 5.74805 6.50223 5.74805 7.49168C5.74805 8.49441 5.80117 8.66043 6.19297 8.9327C6.69102 9.26473 7.42148 9.11199 7.73359 8.6073C7.85313 8.41473 7.87305 8.27527 7.87305 7.5116C7.87305 6.51551 7.81992 6.34949 7.42813 6.07723C7.10938 5.86473 6.55156 5.8448 6.22617 6.04402Z" fill="#A020F0"/>
<path d="M13.6637 12.419C13.252 12.6714 13.1855 12.8772 13.1855 13.8667C13.1855 14.8694 13.2387 15.0354 13.6305 15.3077C14.1285 15.6397 14.859 15.487 15.1711 14.9823C15.2906 14.7897 15.3105 14.6503 15.3105 13.8866C15.3105 12.8905 15.2574 12.7245 14.8656 12.4522C14.5469 12.2397 13.9891 12.2198 13.6637 12.419Z" fill="#A020F0"/>
<path d="M22.8477 16.0979C21.1012 16.43 19.5805 17.2335 18.3254 18.4886C17.057 19.7569 16.2402 21.3108 15.9414 23.0042C15.8086 23.7679 15.8086 25.2421 15.9414 26.0058C16.3996 28.6354 18.1461 30.9331 20.6098 32.1683C21.2406 32.487 22.1238 32.7726 22.8609 32.9054C23.618 33.0315 25.0656 33.0315 25.8227 32.9054C28.4523 32.4405 30.7566 30.7206 31.9719 28.3101C32.5695 27.1147 32.8418 25.9261 32.8418 24.505C32.8418 22.1409 32.025 20.162 30.3582 18.4886C29.216 17.3464 28.0141 16.6558 26.407 16.2308C25.8559 16.078 25.5969 16.0515 24.541 16.0315C23.6977 16.0183 23.1664 16.0382 22.8477 16.0979ZM24.6074 18.1964C25.1121 18.3358 25.3977 18.8472 25.4043 19.6042V19.9229H26.2809C27.0312 19.9229 27.1973 19.9429 27.4363 20.0624C28.1469 20.4011 28.2066 21.3772 27.5426 21.8222C27.3832 21.9351 27.1641 21.9483 25.2516 21.9815L23.1332 22.0147L22.9406 22.2339C22.6684 22.5394 22.6684 22.971 22.9406 23.2499L23.1332 23.4425H24.1227C25.391 23.4425 25.9289 23.5222 26.4668 23.7878C27.5426 24.3124 28.1934 25.5409 27.9941 26.6897C27.8945 27.294 27.6621 27.7589 27.2703 28.1772C26.8586 28.6089 26.407 28.8679 25.8492 28.9808L25.4375 29.0671L25.3977 29.5917C25.3512 30.196 25.3047 30.3155 24.9727 30.6077C24.7734 30.7804 24.6805 30.8136 24.3883 30.8136C23.9766 30.8136 23.6711 30.6542 23.4785 30.3354C23.3789 30.1694 23.3457 29.9968 23.3457 29.605V29.0937L22.3563 29.0737C21.473 29.0538 21.3402 29.0405 21.1742 28.9144C20.5434 28.4495 20.5234 27.5995 21.141 27.1878C21.3004 27.0749 21.5195 27.0616 23.4254 27.0284L25.5238 26.9952L25.6965 26.8358C25.9688 26.5835 26.0352 26.278 25.8891 25.9792C25.6832 25.5542 25.484 25.5011 24.1359 25.5011C22.8742 25.5011 22.5289 25.4347 21.9777 25.0827C21.5859 24.837 21.1012 24.2792 20.902 23.8542C20.7426 23.5155 20.7227 23.396 20.7227 22.712C20.7227 22.0214 20.7426 21.9151 20.902 21.5632C21.2605 20.7929 22.0641 20.1687 22.9074 19.9894L23.2594 19.9163L23.2992 19.4315C23.3523 18.7409 23.598 18.3358 24.0496 18.1964C24.3086 18.1233 24.3418 18.1233 24.6074 18.1964Z" fill="#A020F0"/>
</svg>
